<svg xmlns="http://www.w3.org/2000/svg" viewBox="0 0 64 64" id="timer"><g data-name="Layer 3"><path d="M26.71,12a23.52,23.52,0,0,1,5-.74v1.17a1,1,0,0,0,2,0V11.21a23.75,23.75,0,0,1,10,2.68l-.6,1a1,1,0,0,0,1.73,1l.6-1a24.09,24.09,0,0,1,7.38,7.33l-1.09.63a1,1,0,0,0,1,1.73l1.1-.64A23.72,23.72,0,0,1,56.62,34H55.29a1,1,0,0,0,0,2h1.33a23.74,23.74,0,0,1-2.69,10.11l-1.19-.69a1,1,0,1,0-1,1.73l1.19.68a24.1,24.1,0,0,1-7.41,7.41l-.7-1.21a1,1,0,0,0-1.73,1l.7,1.21A23.74,23.74,0,0,1,33.66,59v-1.4a1,1,0,0,0-2,0V59a23.51,23.51,0,0,1-4.95-.74,1,1,0,0,0-.51,1.93A25.9,25.9,0,0,0,51.6,17.35l2.1-2.1.83.83a1,1,0,0,0,1.41,0l3-3a1,1,0,0,0,0-1.41L55.77,8.47a1,1,0,0,0-1.41,0l-3,3a1,1,0,0,0,0,1.41l.94.94-2.11,2.11A25.84,25.84,0,0,0,36.25,9.43v-1h2.66a1,1,0,0,0,1-1V4a1,1,0,0,0-1-1H27.21a1,1,0,0,0-1,1V7.47a1,1,0,0,0,1,1h2.66v.88A25.23,25.23,0,0,0,26.2,10,1,1,0,0,0,26.71,12Zm28.35-1.36,1.78,1.78L55.24,14l-1.78-1.78ZM28.21,5h9.69V6.47H28.21Zm3.66,3.47h2.37v.76c-.5,0-1,0-1.51,0l-.86,0Z"></path><path d="M19.08 19.07h5.48a1 1 0 1 0 0-2H19.08a1 1 0 0 0 0 2zM14.78 25.88H24a1 1 0 0 0 0-2H14.78a1 1 0 0 0 0 2zM10.57 32.69H24.29a1 1 0 1 0 0-2H10.57a1 1 0 1 0 0 2zM5.75 39.49H24.57a1 1 0 1 0 0-2H5.75a1 1 0 0 0 0 2zM24.58 45.3a1 1 0 0 0-1-1H10.94a1 1 0 0 0 0 2H23.58A1 1 0 0 0 24.58 45.3zM19.08 53.11h5.48a1 1 0 1 0 0-2H19.08a1 1 0 0 0 0 2zM32.69 38.52a3.59 3.59 0 0 0 2.13-.7l.1-.09 10.26-9.92a1 1 0 0 0-1.09-1.64L31.78 31.47l-1 .44a.94.94 0 0 0-.2.11 3.6 3.6 0 0 0 2.14 6.5zM31.1 34.68a1.59 1.59 0 0 1 .55-1l8.21-3.53-6.28 6.08a1.6 1.6 0 0 1-2.48-1.57z"></path></g></svg>