<?xml version="1.0" encoding="UTF-8"?>
<!DOCTYPE svg PUBLIC "-//W3C//DTD SVG 1.1//EN" "http://www.w3.org/Graphics/SVG/1.1/DTD/svg11.dtd">
<!-- Creator: CorelDRAW -->
<svg xmlns="http://www.w3.org/2000/svg" xml:space="preserve" width="6.82666in" height="6.82666in" style="shape-rendering:geometricPrecision; text-rendering:geometricPrecision; image-rendering:optimizeQuality; fill-rule:evenodd; clip-rule:evenodd"
viewBox="0 0 6.82666 6.82666"
 xmlns:xlink="http://www.w3.org/1999/xlink">
 <defs>
  <style type="text/css">
   <![CDATA[
    .fil4 {fill:none}
    .fil3 {fill:#202020}
    .fil0 {fill:#7E7E7E}
    .fil1 {fill:#D4D4D4}
    .fil2 {fill:#F0F0F0}
   ]]>
  </style>
 </defs>
 <g id="Layer_x0020_1">
  <metadata id="CorelCorpID_0Corel-Layer"/>
  <path class="fil0" d="M3.41333 0.853331c1.41385,0 2.56,1.14615 2.56,2.56 0,1.41385 -1.14615,2.56 -2.56,2.56 -1.41385,0 -2.56,-1.14615 -2.56,-2.56 0,-1.41385 1.14615,-2.56 2.56,-2.56z"/>
  <path class="fil1" d="M3.41333 1.19151c0.613531,0 1.16899,0.248693 1.57106,0.65076 0.402067,0.402071 0.65076,0.957528 0.65076,1.57106 0,0.613531 -0.248693,1.16899 -0.65076,1.57106 -0.402071,0.402067 -0.957528,0.65076 -1.57106,0.65076 -0.613531,0 -1.16899,-0.248693 -1.57106,-0.65076 -0.402067,-0.402071 -0.65076,-0.957528 -0.65076,-1.57106 0,-0.613531 0.248693,-1.16899 0.65076,-1.57106 0.402071,-0.402067 0.957528,-0.65076 1.57106,-0.65076z"/>
  <path class="fil2" d="M4.87126 1.9554c-0.37311,-0.373106 -0.888571,-0.603886 -1.45793,-0.603886 -0.569362,0 -1.08482,0.23078 -1.45793,0.603886 -0.373106,0.37311 -0.603886,0.888571 -0.603886,1.45793 0,0.569362 0.23078,1.08482 0.603886,1.45793 0.37311,0.373106 0.888571,0.603886 1.45793,0.603886 0.569362,0 1.08482,-0.23078 1.45793,-0.603886 0.373106,-0.37311 0.603886,-0.888571 0.603886,-1.45793 0,-0.569362 -0.23078,-1.08482 -0.603886,-1.45793z"/>
  <path class="fil3" d="M2.47952 1.79592c0.0382638,-0.0220945 0.087189,-0.00898425 0.109283,0.0292795 0.0220906,0.0382638 0.00898031,0.0871929 -0.0292835,0.109283 -0.0382638,0.0220906 -0.087189,0.00898031 -0.109283,-0.0292835 -0.0220906,-0.0382638 -0.00898031,-0.087189 0.0292835,-0.10928z"/>
  <path class="fil3" d="M1.79592 2.47952c0.0220906,-0.0382638 0.0710157,-0.051374 0.10928,-0.0292835 0.0382638,0.0220945 0.051374,0.0710197 0.0292835,0.109283 -0.0220906,0.0382638 -0.0710197,0.051374 -0.109283,0.0292835 -0.0382638,-0.0220945 -0.051374,-0.0710197 -0.0292795,-0.109283z"/>
  <path class="fil3" d="M1.5457 3.41333c0,-0.0441811 0.0358189,-0.08 0.08,-0.08 0.0441811,0 0.08,0.0358189 0.08,0.08 0,0.0441811 -0.0358189,0.08 -0.08,0.08 -0.0441811,0 -0.08,-0.0358189 -0.08,-0.08z"/>
  <path class="fil3" d="M1.79592 4.34715c-0.0220945,-0.0382638 -0.00898425,-0.087189 0.0292795,-0.109283 0.0382638,-0.0220906 0.0871929,-0.00898031 0.109283,0.0292835 0.0220906,0.0382638 0.00898031,0.087189 -0.0292835,0.109283 -0.0382638,0.0220906 -0.087189,0.00898031 -0.10928,-0.0292835z"/>
  <path class="fil3" d="M2.47952 5.03074c-0.0382638,-0.0220906 -0.051374,-0.0710157 -0.0292835,-0.10928 0.0220945,-0.0382638 0.0710197,-0.051374 0.109283,-0.0292835 0.0382638,0.0220906 0.051374,0.0710197 0.0292835,0.109283 -0.0220945,0.0382638 -0.0710197,0.051374 -0.109283,0.0292795z"/>
  <path class="fil3" d="M3.41333 5.28096c-0.0441811,0 -0.08,-0.0358189 -0.08,-0.08 0,-0.0441811 0.0358189,-0.08 0.08,-0.08 0.0441811,0 0.08,0.0358189 0.08,0.08 0,0.0441811 -0.0358189,0.08 -0.08,0.08z"/>
  <path class="fil3" d="M4.34715 5.03074c-0.0382638,0.0220945 -0.087189,0.00898425 -0.109283,-0.0292795 -0.0220906,-0.0382638 -0.00898031,-0.0871929 0.0292835,-0.109283 0.0382638,-0.0220906 0.087189,-0.00898031 0.109283,0.0292835 0.0220906,0.0382638 0.00898031,0.087189 -0.0292835,0.10928z"/>
  <path class="fil3" d="M5.03074 4.34715c-0.0220906,0.0382638 -0.0710157,0.051374 -0.10928,0.0292835 -0.0382638,-0.0220945 -0.051374,-0.0710197 -0.0292835,-0.109283 0.0220906,-0.0382638 0.0710197,-0.051374 0.109283,-0.0292835 0.0382638,0.0220945 0.051374,0.0710197 0.0292795,0.109283z"/>
  <path class="fil3" d="M5.28096 3.41333c0,0.0441811 -0.0358189,0.08 -0.08,0.08 -0.0441811,0 -0.08,-0.0358189 -0.08,-0.08 0,-0.0441811 0.0358189,-0.08 0.08,-0.08 0.0441811,0 0.08,0.0358189 0.08,0.08z"/>
  <path class="fil3" d="M5.03074 2.47952c0.0220945,0.0382638 0.00898425,0.087189 -0.0292795,0.109283 -0.0382638,0.0220906 -0.0871929,0.00898031 -0.109283,-0.0292835 -0.0220906,-0.0382638 -0.00898031,-0.087189 0.0292835,-0.109283 0.0382638,-0.0220906 0.087189,-0.00898031 0.10928,0.0292835z"/>
  <path class="fil3" d="M4.34715 1.79592c0.0382638,0.0220906 0.051374,0.0710157 0.0292835,0.10928 -0.0220945,0.0382638 -0.0710197,0.051374 -0.109283,0.0292835 -0.0382638,-0.0220906 -0.051374,-0.0710197 -0.0292835,-0.109283 0.0220945,-0.0382638 0.0710197,-0.051374 0.109283,-0.0292795z"/>
  <path class="fil3" d="M3.41333 1.5457c0.0441811,0 0.08,0.0358189 0.08,0.08 0,0.0441811 -0.0358189,0.08 -0.08,0.08 -0.0441811,0 -0.08,-0.0358189 -0.08,-0.08 0,-0.0441811 0.0358189,-0.08 0.08,-0.08z"/>
  <path class="fil3" d="M3.61322 3.3387l1.29344 0.0744921 -1.29343 0.074748c-0.0302559,0.0810157 -0.108339,0.138717 -0.199902,0.138717 -0.117815,0 -0.213327,-0.0955118 -0.213327,-0.213327 0,-0.091937 0.0581614,-0.170287 0.139697,-0.200276l0.0734921 -1.07972 0.0737441 1.07972c0.0582559,0.0214173 0.104579,0.0675354 0.126287,0.125654z"/>
 </g>
 <rect class="fil4" width="6.82666" height="6.82666"/>
</svg>
