<svg xmlns="http://www.w3.org/2000/svg" width="60" height="60" id="telegram"><path d="M51.012 10a1 1 0 0 0-.406.08l-42 18a1 1 0 0 0 .023 1.848l9.569 3.828 3.853 11.561a1 1 0 0 0 1.656.39l6.54-6.539 12.095 10.584a1 1 0 0 0 1.637-.546l8-38.001a1 1 0 0 0-.967-1.206zm-1.387 2.678-7.252 34.446-13.87-12.137 10.17-9.247a1 1 0 0 0 .068-1.412 1 1 0 0 0-1.412-.068l-11 10a1 1 0 0 0 .013 1.492l2.397 2.096-5.301 5.3-3.488-10.464a1 1 0 0 0-.579-.611l-7.757-3.104z" color="#000" style="font-feature-settings:normal;font-variant-alternates:normal;font-variant-caps:normal;font-variant-east-asian:normal;font-variant-ligatures:normal;font-variant-numeric:normal;font-variant-position:normal;font-variation-settings:normal;inline-size:0;isolation:auto;mix-blend-mode:normal;shape-margin:0;shape-padding:0;text-decoration-color:#000;text-decoration-line:none;text-decoration-style:solid;text-indent:0;text-orientation:mixed;text-transform:none"></path></svg>